<?xml version="1.0" standalone="no"?>
<!DOCTYPE svg PUBLIC "-//W3C//DTD SVG 20010904//EN"
 "http://www.w3.org/TR/2001/REC-SVG-20010904/DTD/svg10.dtd">
<svg version="1.0" xmlns="http://www.w3.org/2000/svg"
 width="207.000000pt" height="207.000000pt" viewBox="0 0 207.000000 207.000000"
 preserveAspectRatio="xMidYMid meet">

<g transform="translate(0.000000,207.000000) scale(0.100000,-0.100000)"
fill="#000000" stroke="none">
<path d="M987 2024 c-4 -5 -35 -7 -69 -6 -38 2 -69 -2 -82 -11 -11 -7 -43 -20
-70 -27 -31 -8 -64 -28 -89 -52 -22 -21 -45 -38 -52 -38 -29 0 -118 -55 -146
-91 -33 -42 -69 -125 -69 -160 0 -11 -11 -35 -24 -52 -35 -46 -52 -119 -38
-165 6 -20 9 -62 5 -94 -5 -46 -2 -65 17 -103 12 -26 33 -51 46 -57 14 -7 24
-20 24 -32 1 -35 37 -103 64 -121 14 -9 33 -31 44 -48 10 -18 52 -70 92 -116
81 -94 100 -131 100 -193 0 -24 7 -53 14 -64 10 -13 14 -41 13 -78 -2 -50 1
-59 25 -79 24 -20 27 -29 26 -82 0 -33 -5 -66 -10 -72 -7 -9 -7 -13 2 -13 8 0
11 -11 7 -32 -6 -43 21 -97 67 -131 19 -15 38 -36 41 -47 6 -18 15 -20 88 -20
80 0 82 1 94 28 7 15 26 35 43 44 17 10 37 33 45 52 8 19 19 37 25 41 6 4 5
13 -3 25 -9 15 -9 25 -1 38 8 12 8 22 0 35 -8 12 -8 22 1 37 8 12 9 21 3 25
-18 11 -10 47 16 78 23 27 25 37 20 76 -4 26 -2 49 5 57 6 8 17 48 24 89 15
82 23 97 131 221 34 39 65 80 68 91 4 11 17 26 31 33 26 14 65 83 65 116 0 11
13 30 28 41 44 32 63 83 62 161 -1 37 2 88 6 114 8 57 2 84 -30 130 -13 20
-29 59 -35 87 -6 29 -20 69 -31 90 -26 52 -104 119 -154 132 -23 6 -60 28 -83
49 -22 21 -61 44 -85 51 -23 7 -53 19 -65 27 -12 7 -44 13 -75 12 -29 -1 -69
1 -88 5 -19 4 -39 3 -43 -1z m123 -44 c62 1 92 -20 106 -74 6 -26 5 -28 -12
-22 -68 28 -72 10 -10 -45 49 -43 82 -113 71 -149 -6 -18 -12 -21 -37 -16 -17
3 -41 6 -55 6 -22 0 -23 3 -17 35 10 53 -1 81 -37 94 -23 8 -30 15 -25 27 30
78 18 92 -80 92 -69 0 -76 -2 -86 -23 -7 -16 -7 -33 0 -54 10 -28 9 -30 -19
-40 -39 -13 -57 -53 -42 -92 14 -35 10 -37 -57 -41 -44 -3 -45 -2 -48 30 -4
40 33 107 77 140 52 38 34 72 -18 35 -24 -16 -24 -16 -17 13 4 16 15 40 25 54
16 22 26 25 84 25 36 0 69 4 74 8 4 5 21 6 38 2 16 -4 55 -6 85 -5z m-346 -97
c-4 -32 -16 -76 -27 -97 -15 -32 -18 -52 -14 -96 6 -54 5 -58 -22 -78 -27 -20
-30 -20 -44 -4 -44 49 -39 172 11 245 22 34 83 87 99 87 2 0 0 -26 -3 -57z
m532 35 c17 -12 47 -44 65 -71 31 -46 34 -56 34 -126 0 -57 -5 -84 -18 -104
l-18 -27 -33 26 c-30 25 -33 30 -25 58 11 37 4 78 -21 126 -17 33 -34 140 -22
140 3 0 20 -10 38 -22z m-232 -53 c-4 -11 -15 -33 -26 -48 -17 -24 -22 -26
-36 -15 -12 10 -42 67 -42 81 0 1 25 3 55 3 51 0 54 -2 49 -21z m-459 -42 c-9
-26 -25 -112 -22 -125 1 -7 -18 -15 -44 -19 -26 -4 -57 -12 -69 -19 -20 -11
-21 -10 -15 12 21 66 68 128 120 156 29 16 38 14 30 -5z m873 -13 c40 -28 92
-111 92 -144 0 -13 -4 -13 -35 0 -19 7 -47 14 -63 14 -29 0 -30 2 -35 58 -3
31 -8 67 -12 80 -10 30 4 28 53 -8z m-497 -52 c25 -18 33 -20 47 -10 56 40 92
40 92 0 -1 -32 -18 -58 -66 -101 l-42 -37 -50 48 c-54 53 -70 85 -52 107 17
21 36 19 71 -7z m-381 -127 c0 -4 11 -25 25 -44 23 -35 23 -38 9 -72 -14 -35
-12 -55 6 -55 6 0 21 21 34 48 44 85 113 132 197 132 45 0 59 -4 76 -22 32
-35 43 -63 43 -106 0 -38 19 -69 33 -55 4 3 7 21 7 40 0 44 24 100 52 123 31
26 116 26 167 1 47 -24 95 -78 112 -125 13 -35 32 -46 44 -26 3 5 -1 25 -9 45
-14 34 -14 37 9 72 14 19 25 40 25 44 0 14 58 10 97 -6 48 -20 71 -41 94 -87
16 -32 27 -98 15 -98 -2 0 -19 14 -37 32 -19 17 -53 39 -75 50 -23 10 -44 25
-48 33 -6 16 -36 21 -36 6 0 -5 7 -25 15 -44 32 -77 4 -147 -59 -147 -36 0
-63 24 -91 80 -40 82 -98 114 -153 86 -50 -26 -56 -77 -17 -141 45 -72 26
-127 -51 -146 -52 -13 -59 -36 -12 -41 29 -3 35 -9 51 -52 23 -64 18 -76 -37
-76 -46 0 -56 9 -56 56 0 42 -29 29 -36 -16 l-7 -40 -48 0 c-56 0 -59 7 -33
83 14 40 19 46 47 49 44 4 40 20 -8 36 -22 7 -47 20 -57 29 -25 23 -22 76 7
131 28 53 30 61 13 97 -7 16 -25 29 -48 36 -52 16 -89 -5 -124 -73 -41 -76
-64 -98 -102 -98 -24 0 -39 8 -54 28 -22 27 -23 65 -4 145 5 21 3 27 -10 27
-9 0 -19 -7 -23 -15 -3 -9 -20 -22 -38 -29 -18 -8 -51 -30 -73 -50 -22 -20
-43 -36 -47 -36 -14 0 6 85 28 117 33 48 93 83 144 83 24 0 43 -4 43 -9z m264
-137 c20 -20 20 -22 -5 -69 -12 -22 -25 -52 -30 -67 -11 -38 7 -93 38 -117 23
-19 25 -23 13 -51 -10 -24 -19 -30 -42 -30 -44 0 -83 25 -102 65 -20 41 -25
42 -77 13 l-39 -23 -38 21 c-34 19 -70 72 -87 128 -5 18 -7 18 -22 4 -13 -14
-14 -22 -4 -49 9 -27 8 -41 -6 -76 -10 -24 -21 -43 -26 -43 -4 0 -16 15 -28
33 -42 67 -9 173 72 233 l34 25 5 -43 c11 -80 47 -118 116 -118 54 0 82 23
123 99 42 79 73 98 105 65z m357 6 c10 -6 32 -37 49 -69 16 -33 41 -68 56 -80
33 -26 99 -28 133 -5 26 19 51 71 51 109 0 14 3 25 8 25 17 0 81 -62 96 -94
25 -52 21 -129 -8 -163 l-24 -28 -16 39 c-12 28 -14 53 -10 89 6 43 5 49 -11
46 -9 -2 -23 -21 -30 -43 -16 -46 -58 -92 -92 -101 -16 -4 -36 1 -57 15 -40
24 -66 26 -66 4 0 -9 -15 -31 -34 -50 -27 -27 -42 -34 -73 -34 -34 0 -41 4
-49 28 -9 24 -6 32 23 65 41 46 44 94 8 152 -29 47 -32 80 -7 94 22 13 29 13
53 1z m-678 -282 c18 -13 34 -24 35 -25 2 -1 -8 -19 -22 -40 -14 -20 -26 -50
-26 -65 0 -32 -11 -36 -31 -12 -21 26 -16 164 6 164 3 0 20 -10 38 -22z m995
-76 c-3 -39 -10 -68 -20 -78 -14 -14 -16 -12 -22 24 -3 22 -17 54 -31 70 l-24
29 37 25 c33 23 38 23 50 9 9 -11 12 -36 10 -79z m-815 33 l28 -34 -31 -16
c-36 -19 -70 -69 -70 -105 0 -34 24 -67 93 -130 76 -70 89 -96 95 -202 l5 -88
-26 0 c-29 0 -37 16 -37 73 -1 62 -28 111 -118 216 -50 57 -86 108 -92 130
-18 67 11 122 90 174 32 21 30 21 63 -18z m709 -37 c22 -32 33 -86 24 -123 -4
-14 -42 -67 -84 -118 -106 -124 -111 -134 -125 -219 -11 -63 -15 -73 -35 -76
-21 -3 -22 0 -22 77 0 44 5 92 10 107 6 14 49 64 95 109 79 76 85 85 85 122 0
46 -26 85 -71 109 l-29 15 27 34 27 34 39 -22 c22 -12 48 -34 59 -49z m-572
-42 c0 -30 13 -39 65 -46 35 -4 40 -8 37 -28 -5 -32 24 -72 51 -72 33 0 47 19
47 61 0 37 1 38 43 41 36 3 44 7 57 35 12 27 21 33 48 33 31 0 108 -40 124
-64 22 -33 7 -63 -73 -141 -45 -44 -88 -94 -95 -112 -8 -19 -14 -68 -14 -118
l0 -85 -40 0 -40 0 0 128 c0 119 2 130 25 164 16 23 45 46 82 64 71 34 67 30
60 48 -16 40 -165 -54 -193 -121 -9 -21 -14 -74 -14 -158 0 -101 -3 -125 -14
-125 -11 0 -15 27 -18 133 -2 111 -6 138 -23 167 -22 37 -93 90 -145 108 -26
10 -32 9 -37 -5 -4 -9 -2 -18 4 -20 32 -11 119 -72 137 -96 18 -25 21 -46 24
-158 l4 -129 -40 0 -39 0 -6 93 c-3 50 -10 104 -16 119 -5 15 -46 63 -91 106
-87 87 -97 113 -57 148 43 39 72 53 110 53 33 1 37 -2 37 -23z m160 -88 c0
-18 -2 -20 -9 -8 -6 8 -7 18 -5 22 9 14 14 9 14 -14z m168 -464 c25 -7 30 -39
6 -48 -20 -8 -348 -8 -368 0 -9 3 -16 15 -16 25 0 17 11 19 153 22 83 1 163 3
177 5 14 1 35 -1 48 -4z m-19 -194 c-21 -12 -327 -26 -316 -14 9 9 131 19 262
22 48 1 65 -2 54 -8z m-19 -70 c-60 -14 -306 -24 -295 -12 9 10 94 16 260 19
57 1 63 -1 35 -7z m-1 -64 c-9 -9 -280 -27 -291 -19 -8 5 13 10 52 14 81 7
245 10 239 5z"/>
<path d="M954 1385 c-8 -33 3 -77 19 -72 7 2 13 25 15 50 2 37 0 47 -12 47 -9
0 -18 -11 -22 -25z"/>
<path d="M1032 1363 c2 -35 7 -48 18 -48 24 0 21 89 -3 93 -16 3 -18 -3 -15
-45z"/>
</g>
</svg>
